<?xml version="1.0" standalone="no"?>
<!DOCTYPE svg PUBLIC "-//W3C//DTD SVG 20010904//EN"
 "http://www.w3.org/TR/2001/REC-SVG-20010904/DTD/svg10.dtd">
<svg version="1.0" xmlns="http://www.w3.org/2000/svg"
 width="700.000000pt" height="700.000000pt" viewBox="0 0 700.000000 700.000000"
 preserveAspectRatio="xMidYMid meet">
<metadata>
Created by potrace 1.14, written by Peter Selinger 2001-2017
</metadata>
<g transform="translate(0.000000,700.000000) scale(0.100000,-0.100000)"
fill="#000000" stroke="none">
<path d="M2519 6927 c-145 -83 -137 -78 -334 -190 -82 -46 -231 -130 -330
-187 -99 -56 -200 -113 -225 -127 -25 -14 -146 -83 -270 -153 -124 -70 -365
-207 -536 -304 -172 -97 -317 -176 -324 -176 -7 0 -120 63 -251 140 -131 77
-240 140 -243 140 -3 0 -6 -73 -6 -162 l0 -163 153 -89 c83 -48 163 -96 177
-105 48 -31 127 -71 151 -75 32 -5 85 17 194 80 50 28 113 64 140 79 28 15
100 55 160 90 61 34 133 75 160 90 28 16 79 45 115 65 106 60 302 171 345 195
22 13 84 48 139 79 54 31 100 56 103 56 2 0 16 8 31 19 15 10 194 112 397 226
429 241 948 536 954 541 2 2 -126 4 -285 3 l-289 0 -126 -72z"/>
<path d="M3831 6996 c4 -3 424 -251 489 -288 19 -11 109 -64 200 -118 91 -54
253 -149 360 -212 107 -64 285 -169 395 -234 110 -65 216 -128 236 -139 38
-21 274 -160 299 -176 45 -27 299 -177 311 -182 8 -4 30 -17 50 -30 154 -95
240 -138 277 -139 40 0 75 16 257 122 44 25 87 49 95 53 8 4 42 23 75 43 33
19 75 42 93 51 l32 17 0 164 c0 90 -3 162 -8 160 -18 -8 -221 -123 -254 -144
-21 -13 -40 -24 -42 -24 -3 0 -59 -31 -126 -69 l-120 -69 -167 100 c-93 55
-186 110 -208 123 -22 12 -89 51 -148 86 -59 35 -115 69 -125 74 -9 6 -62 37
-117 70 -55 33 -109 64 -120 71 -20 11 -236 138 -530 312 -88 52 -180 106
-205 120 -25 14 -62 36 -83 49 -21 13 -53 32 -70 42 -18 10 -91 53 -163 95
l-130 76 -279 0 c-153 0 -276 -2 -274 -4z"/>
<path d="M3462 6638 c-50 -8 -96 -33 -462 -243 -151 -87 -295 -169 -320 -183
-25 -14 -85 -49 -135 -77 -91 -53 -1250 -716 -1315 -752 -19 -11 -89 -51 -155
-89 -67 -38 -134 -76 -150 -84 -17 -8 -51 -36 -76 -62 -77 -77 -81 -101 -85
-452 -8 -790 -17 -1882 -18 -2256 -1 -403 0 -416 20 -460 42 -89 7 -65 649
-447 259 -154 672 -401 920 -549 247 -148 462 -276 477 -284 16 -8 137 -80
270 -160 132 -80 264 -153 292 -163 51 -19 132 -19 181 -1 11 4 407 239 880
522 473 284 955 571 1070 640 263 157 289 178 328 260 26 56 29 71 25 130 -8
108 -61 190 -154 237 -65 33 -142 41 -209 20 -34 -10 -416 -230 -555 -320 -59
-38 -1014 -608 -1037 -619 -13 -6 -23 -14 -23 -18 0 -5 -4 -8 -9 -8 -5 0 -99
-54 -209 -120 l-201 -121 -33 18 c-29 16 -683 406 -1156 689 -95 57 -177 104
-183 104 -5 0 -9 5 -9 10 0 6 -5 10 -10 10 -6 0 -47 23 -91 50 -44 28 -81 50
-82 50 -1 0 -133 78 -292 173 l-290 173 2 364 c4 791 17 2142 22 2162 1 6 91
60 206 123 28 15 83 47 122 71 40 24 75 44 78 44 3 0 24 12 48 27 23 14 67 40
97 56 30 16 62 36 71 43 8 8 19 14 22 14 5 0 561 316 704 400 10 6 198 113
417 239 l400 228 58 -36 c33 -20 67 -41 76 -46 9 -6 28 -17 42 -26 46 -30 721
-444 764 -469 24 -14 94 -56 155 -95 61 -38 127 -79 146 -90 48 -28 211 -129
415 -256 248 -155 300 -179 382 -175 202 8 329 211 249 398 -27 63 -71 104
-192 178 -431 264 -1217 746 -1319 809 -324 201 -366 227 -385 237 -11 6 -65
39 -119 73 -54 34 -115 71 -136 81 -49 25 -126 38 -178 28z"/>
<path d="M6869 5266 c-166 -94 -176 -101 -195 -138 -19 -36 -17 52 -28 -1288
-3 -355 -9 -926 -12 -1270 l-5 -625 23 -35 c16 -24 70 -62 178 -126 85 -51
158 -93 163 -93 4 -1 7 73 7 163 l0 163 -43 23 -43 23 3 216 c1 119 4 500 7
846 17 1884 16 1850 31 1860 7 6 21 15 30 20 14 9 15 31 13 171 l-3 161 -126
-71z"/>
<path d="M0 5145 c0 -149 2 -166 18 -172 9 -3 28 -14 42 -24 l26 -17 -2 -194
c-1 -106 -5 -526 -9 -933 -3 -407 -8 -909 -10 -1115 -2 -206 -4 -441 -4 -522
l-1 -147 -30 -18 -30 -17 0 -164 0 -164 43 25 c23 14 58 34 77 44 225 127 220
123 221 162 2 72 7 620 13 1276 3 369 9 945 12 1280 l6 610 -24 34 c-16 23
-72 64 -178 127 -85 51 -158 93 -162 94 -5 0 -8 -74 -8 -165z"/>
<path d="M2977 4792 c-15 -62 -45 -174 -147 -557 -22 -82 -56 -213 -76 -290
-20 -77 -40 -144 -44 -148 -6 -7 -176 -57 -244 -72 -10 -3 -60 -16 -110 -31
-50 -14 -98 -27 -106 -29 -91 -19 -586 -161 -577 -166 7 -3 242 -68 522 -145
281 -76 513 -142 516 -147 4 -5 19 -57 34 -116 15 -58 44 -169 65 -246 21 -77
68 -255 105 -395 37 -140 70 -263 72 -273 9 -31 20 -18 32 36 6 28 13 59 15
67 3 8 59 220 126 470 67 250 125 458 128 462 4 4 18 9 32 12 14 2 50 11 80
19 30 9 147 41 260 71 113 31 228 63 255 71 28 8 61 18 75 20 15 4 172 -34
387 -92 l362 -98 15 -50 c8 -27 29 -102 45 -165 68 -266 92 -356 101 -380 5
-14 12 -36 14 -50 3 -14 14 -61 26 -105 12 -44 23 -87 25 -95 13 -54 57 -216
61 -219 5 -6 9 8 49 164 20 77 47 181 61 230 32 120 55 204 114 425 27 102 53
198 57 214 8 26 17 31 78 48 553 149 962 262 968 268 4 4 -30 16 -75 29 -46
12 -139 37 -208 56 -69 19 -267 74 -440 121 -173 47 -315 86 -316 87 -2 5 -93
344 -194 727 -38 146 -75 283 -81 305 l-12 40 -17 -65 c-10 -36 -73 -274 -141
-530 -67 -256 -126 -469 -129 -473 -6 -7 -150 -51 -205 -62 -24 -5 -222 -60
-419 -115 -43 -12 -88 -22 -100 -22 -12 0 -156 37 -321 82 -316 87 -404 110
-409 110 -2 0 -9 24 -16 53 -7 28 -18 75 -26 102 -15 52 -73 268 -79 295 -2 8
-13 51 -25 95 -12 44 -23 87 -25 95 -2 8 -16 60 -31 115 -14 55 -39 146 -53
202 -15 56 -29 105 -32 107 -3 3 -13 -25 -22 -62z"/>
<path d="M459 1491 c-37 -20 -155 -85 -263 -146 l-196 -110 0 -162 c0 -90 3
-163 8 -163 4 0 16 6 27 14 11 7 126 73 255 145 129 73 239 136 244 141 10 10
44 -8 216 -110 196 -117 325 -193 345 -204 17 -9 267 -158 315 -187 13 -8 127
-74 205 -119 31 -18 100 -59 610 -360 171 -101 329 -194 351 -207 41 -23 44
-23 318 -21 l277 3 -137 80 c-75 44 -155 91 -178 104 -22 13 -138 81 -256 151
-118 70 -231 136 -250 147 -19 11 -107 63 -195 115 -88 52 -277 164 -420 248
-321 189 -757 446 -971 572 -196 116 -212 119 -305 69z"/>
<path d="M6475 1522 c-18 -4 -297 -159 -670 -372 -93 -53 -190 -108 -215 -122
-25 -14 -166 -94 -315 -178 -148 -84 -290 -164 -315 -178 -25 -14 -211 -119
-415 -235 -203 -115 -459 -259 -568 -321 l-197 -111 285 -3 285 -2 383 216
c210 119 407 230 437 247 30 17 88 50 128 74 41 24 75 43 76 43 2 0 256 143
566 319 l563 318 243 -143 c134 -79 246 -144 249 -144 3 0 5 73 5 163 l0 162
-178 105 c-278 164 -297 173 -347 162z"/>
</g>
</svg>
