<?xml version="1.0" encoding="UTF-8"?>
<!DOCTYPE svg PUBLIC "-//W3C//DTD SVG 1.1//EN" "http://www.w3.org/Graphics/SVG/1.1/DTD/svg11.dtd">
<svg version="1.1" xmlns="http://www.w3.org/2000/svg" xmlns:xlink="http://www.w3.org/1999/xlink" x="0" y="0" width="1445" height="536" viewBox="0, 0, 1445, 536">
  <defs>
    <filter id="Shadow_1">
      <feGaussianBlur in="SourceAlpha" stdDeviation="2.5"/>
      <feOffset dx="0" dy="2" result="offsetblur"/>
      <feFlood flood-color="#000000"/>
      <feComposite in2="offsetblur" operator="in"/>
    </filter>
    <linearGradient id="Gradient_1" gradientUnits="userSpaceOnUse" x1="264.458" y1="2.796" x2="264.458" y2="526.796">
      <stop offset="0" stop-color="#163182"/>
      <stop offset="1" stop-color="#0080FF"/>
    </linearGradient>
    <linearGradient id="Gradient_2" gradientUnits="userSpaceOnUse" x1="264.458" y1="8.796" x2="264.458" y2="520.796">
      <stop offset="0" stop-color="#163182"/>
      <stop offset="1" stop-color="#0080FF"/>
    </linearGradient>
  </defs>
  <g id="レイヤー_1">
    <path d="M264.458,530 C119.759,530 2.458,412.699 2.458,268 C2.458,123.301 119.759,6 264.458,6 C409.156,6 526.458,123.301 526.458,268 C526.458,412.699 409.156,530 264.458,530 z" fill="#036CDD"/>
    <g display="none">
      <path d="M264.458,2.796 C409.156,2.796 526.458,120.098 526.458,264.796 C526.458,409.495 409.156,526.796 264.458,526.796 C119.759,526.796 2.458,409.495 2.458,264.796 C2.458,120.098 119.759,2.796 264.458,2.796 z" filter="url(#Shadow_1)" fill="rgba(0,0,0,0.65)"/>
      <path d="M264.458,526.796 C119.759,526.796 2.458,409.495 2.458,264.796 C2.458,120.098 119.759,2.796 264.458,2.796 C409.156,2.796 526.458,120.098 526.458,264.796 C526.458,409.495 409.156,526.796 264.458,526.796 z" fill="url(#Gradient_1)"/>
    </g>
    <path d="M112.523,8.796 L416.393,8.796 C473.866,8.796 520.458,59.066 520.458,121.077 L520.458,408.516 C520.458,470.527 473.866,520.796 416.393,520.796 L112.523,520.796 C55.049,520.796 8.458,470.527 8.458,408.516 L8.458,121.077 C8.458,59.066 55.049,8.796 112.523,8.796 z" fill="url(#Gradient_2)" display="none"/>
    <path d="M112.523,3.423 L416.393,3.423 C473.866,3.423 520.458,53.693 520.458,115.704 L520.458,403.142 C520.458,465.153 473.866,515.423 416.393,515.423 L112.523,515.423 C55.049,515.423 8.458,465.153 8.458,403.142 L8.458,115.704 C8.458,53.693 55.049,3.423 112.523,3.423 z" fill="#066BDD" display="none"/>
    <g>
      <path d="M262.958,343.923 L190.958,487.923 L334.958,487.923 L262.958,343.923" fill="#FFFFFF"/>
      <path d="M262.958,343.923 L190.958,487.923 L334.958,487.923 L262.958,343.923" fill-opacity="0" stroke="#FFFFFF" stroke-width="8" stroke-linecap="round" stroke-linejoin="round"/>
    </g>
    <g>
      <path d="M423.529,331.923 L106.386,331.923 L42.958,295.923 L106.386,259.923 L423.529,259.923 L486.958,295.923 L423.529,331.923" fill="#FFFFFF"/>
      <path d="M423.529,331.923 L106.386,331.923 L42.958,295.923 L106.386,259.923 L423.529,259.923 L486.958,295.923 L423.529,331.923" fill-opacity="0" stroke="#FFFFFF" stroke-width="8" stroke-linecap="round" stroke-linejoin="round"/>
    </g>
    <path d="M408.458,139.423 C378.634,139.423 354.458,115.246 354.458,85.423 C354.458,55.599 378.634,31.423 408.458,31.423 C438.281,31.423 462.458,55.599 462.458,85.423 C462.458,115.246 438.281,139.423 408.458,139.423 z" fill="#FFFFFF" fill-opacity="0.3" display="none"/>
    <path d="M386.467,36.147 C415.189,50.8 439.906,71.606 461.487,95.351 C456.781,121.091 434.168,138.772 408.458,139.423 C378.634,139.423 354.458,115.246 354.458,85.423 C354.617,64.558 366.993,44.381 386.467,36.147 z" fill="#FFFFFF" fill-opacity="0.3"/>
    <path d="M336.458,187.423 C306.634,187.423 282.458,163.246 282.458,133.423 C282.458,103.599 306.634,79.423 336.458,79.423 C366.281,79.423 390.458,103.599 390.458,133.423 C390.458,163.246 366.281,187.423 336.458,187.423 z" fill="#FFFFFF" fill-opacity="0.597"/>
    <path d="M264.458,235.423 C234.634,235.423 210.458,211.246 210.458,181.423 C210.458,151.599 234.634,127.423 264.458,127.423 C294.281,127.423 318.458,151.599 318.458,181.423 C318.458,211.246 294.281,235.423 264.458,235.423 z" fill="#FFFFFF"/>
    <text transform="matrix(1, 0, 0, 1, 1072.33, 295.423)" display="none">
      <tspan x="-528.023" y="-28" font-family="HelveticaNeue" font-size="200" fill="#000000">Acerola</tspan>
      <tspan x="-528.023" y="141.1" font-family="HelveticaNeue" font-size="200" fill="#000000">Software</tspan>
    </text>
    <path d="M268.477,552.533 L1925.66,552.533" fill-opacity="0" stroke="#000000" stroke-width="1" display="none"/>
    <text transform="matrix(1, 0, 0, 1, 1072.33, 265.423)" display="none">
      <tspan x="-528.023" y="-3" font-family="rounded-mplus-2p-medium" font-size="200" fill="#000000">Acerola</tspan>
      <tspan x="-528.023" y="182.4" font-family="rounded-mplus-2p-medium" font-size="200" fill="#000000">Software</tspan>
    </text>
    <g id="Text">
      <path d="M610.707,139.2 L588.707,207.4 Q588.707,208 589.007,208.5 Q589.307,209 589.907,209 L631.907,209 Q632.507,209 632.907,208.5 Q633.307,208 633.107,207.4 L611.107,139.2 Q611.107,139 610.907,139 Q610.707,139 610.707,139.2 z M558.707,265 Q554.507,265 552.107,261.7 Q549.707,258.4 551.107,254.4 L595.507,129.6 Q597.107,124.8 601.407,121.9 Q605.707,119 610.707,119 L611.907,119 Q617.107,119 621.307,121.9 Q625.507,124.8 627.107,129.6 L671.507,254.4 Q672.907,258.4 670.507,261.7 Q668.107,265 663.907,265 L663.107,265 Q658.107,265 654.007,262 Q649.907,259 648.307,254.2 L639.707,227.8 Q639.107,226.2 637.507,226.2 L584.307,226.2 Q582.707,226.2 582.107,227.8 L573.507,254.2 Q572.107,259 568.007,262 Q563.907,265 558.707,265 z" fill="#000000"/>
      <path d="M736.907,267 Q713.307,267 698.607,252.4 Q683.907,237.8 683.907,213 Q683.907,187.6 697.907,173.3 Q711.907,159 736.907,159 Q749.507,159 762.107,163 Q765.507,164 766.907,167.3 Q768.307,170.6 767.307,174.2 Q766.307,177.4 763.307,178.7 Q760.307,180 757.107,178.8 Q748.107,175.4 737.907,175.4 Q722.507,175.4 713.707,185.2 Q704.907,195 704.907,213 Q704.907,230.6 714.207,240.8 Q723.507,251 737.907,251 Q747.707,251 757.307,247.4 Q760.507,246.2 763.407,247.5 Q766.307,248.8 767.307,252 Q768.307,255.6 766.907,258.8 Q765.507,262 762.107,263 Q749.507,267 736.907,267 z" fill="#000000"/>
      <path d="M836.507,174.6 Q824.107,174.6 816.507,182.2 Q808.907,189.8 808.107,203.6 Q808.107,205.4 809.707,205.4 L862.307,205.4 Q864.107,205.4 864.107,203.6 Q863.307,189.8 856.007,182.2 Q848.707,174.6 836.507,174.6 z M838.507,267 Q816.107,267 801.807,252.3 Q787.507,237.6 787.507,213 Q787.507,187.8 800.807,173.4 Q814.107,159 836.507,159 Q858.307,159 870.607,171.9 Q882.907,184.8 883.507,209.6 Q883.707,214.4 880.107,217.7 Q876.507,221 871.707,221 L809.707,221 Q808.107,221 808.107,222.8 Q809.307,236 818.207,243.7 Q827.107,251.4 840.507,251.4 Q852.507,251.4 863.107,247.2 Q866.107,246 869.107,247.2 Q872.107,248.4 873.107,251.4 Q874.107,254.8 872.707,257.9 Q871.307,261 868.107,262.2 Q855.507,267 838.507,267 z" fill="#000000"/>
      <path d="M923.707,262 Q920.707,265 916.507,265 Q912.307,265 909.307,262 Q906.307,259 906.307,254.8 L906.307,170.6 Q906.307,166.6 909.207,163.8 Q912.107,161 916.107,161 Q920.107,161 922.907,163.8 Q925.707,166.6 925.907,170.6 L926.107,180.8 Q926.107,181 926.307,181 Q926.507,181 926.707,180.8 Q942.307,162.2 965.907,159.4 Q969.307,159 971.807,161.4 Q974.307,163.8 974.307,167.4 Q974.307,170.8 971.907,173.3 Q969.507,175.8 965.907,176.2 Q947.507,178.4 937.107,189.9 Q926.707,201.4 926.707,219 L926.707,254.8 Q926.707,259 923.707,262 z" fill="#000000"/>
      <path d="M1059.707,185 Q1051.707,175 1038.107,175 Q1024.507,175 1016.507,185 Q1008.507,195 1008.507,213 Q1008.507,231 1016.507,241 Q1024.507,251 1038.107,251 Q1051.707,251 1059.707,241 Q1067.707,231 1067.707,213 Q1067.707,195 1059.707,185 z M1074.307,252.4 Q1060.707,267 1038.107,267 Q1015.507,267 1001.807,252.4 Q988.107,237.8 988.107,213 Q988.107,188.2 1001.807,173.6 Q1015.507,159 1038.107,159 Q1060.707,159 1074.407,173.6 Q1088.107,188.2 1088.107,213 Q1088.107,237.8 1074.307,252.4 z" fill="#000000"/>
      <path d="M1134.907,262 Q1131.907,265 1127.507,265 Q1123.107,265 1120.007,261.9 Q1116.907,258.8 1116.907,254.4 L1116.907,125.6 Q1116.907,121.2 1120.007,118.1 Q1123.107,115 1127.507,115 Q1131.907,115 1135.007,118.1 Q1138.107,121.2 1138.107,125.6 L1138.107,254.4 Q1138.107,258.8 1134.907,262 z" fill="#000000"/>
      <path d="M1225.907,213.4 Q1207.907,213.4 1198.207,219.6 Q1188.507,225.8 1188.507,236 Q1188.507,243.4 1193.007,247.7 Q1197.507,252 1204.907,252 Q1217.507,252 1226.707,243.3 Q1235.907,234.6 1235.907,222 L1235.907,215.2 Q1235.907,213.4 1234.107,213.4 z M1199.907,267 Q1185.707,267 1177.307,259 Q1168.907,251 1168.907,237 Q1168.907,219.6 1183.607,209.1 Q1198.307,198.6 1225.907,198.6 L1234.107,198.6 Q1235.907,198.6 1235.907,196.8 Q1235.707,184.6 1230.607,179.8 Q1225.507,175 1212.907,175 Q1198.707,175 1185.107,180.6 Q1182.307,181.8 1179.607,180.4 Q1176.907,179 1176.307,176 Q1175.707,172.4 1177.407,169.2 Q1179.107,166 1182.307,164.6 Q1196.907,159 1212.907,159 Q1235.507,159 1245.707,168.1 Q1255.907,177.2 1255.907,197 L1255.907,237 Q1255.907,244.8 1257.307,255.6 Q1257.707,259.2 1255.407,262.1 Q1253.107,265 1249.507,265 Q1245.307,265 1242.107,262.2 Q1238.907,259.4 1238.507,255.4 Q1238.307,254.4 1238.307,252.3 Q1238.307,250.2 1238.107,249.2 Q1238.107,249 1237.907,249 Q1237.507,249 1237.507,249.2 Q1231.907,257.6 1222.007,262.3 Q1212.107,267 1199.907,267 z" fill="#000000"/>
      <path d="M601.707,384.4 Q577.907,377.4 566.807,366.6 Q555.707,355.8 555.707,340.4 Q555.707,323.2 568.207,312.8 Q580.707,302.4 602.707,302.4 Q620.707,302.4 637.507,308.2 Q641.107,309.4 642.707,312.9 Q644.307,316.4 643.307,320 Q642.307,323.2 639.107,324.7 Q635.907,326.2 632.507,325 Q618.707,320 602.707,320 Q590.507,320 583.907,325.5 Q577.307,331 577.307,340.4 Q577.307,357 601.707,364.4 Q627.907,371.8 638.807,382.8 Q649.707,393.8 649.707,411.4 Q649.707,431.2 637.007,441.8 Q624.307,452.4 600.707,452.4 Q581.507,452.4 564.107,444.8 Q560.307,443.2 558.807,439.3 Q557.307,435.4 558.707,431.4 Q559.907,428 563.307,426.8 Q566.707,425.6 569.907,427.2 Q584.107,434.4 600.707,434.4 Q613.707,434.4 620.707,428.4 Q627.707,422.4 627.707,411.4 Q627.707,401 622.107,395 Q616.507,389 601.707,384.4 z" fill="#000000"/>
      <path d="M740.107,370.4 Q732.107,360.4 718.507,360.4 Q704.907,360.4 696.907,370.4 Q688.907,380.4 688.907,398.4 Q688.907,416.4 696.907,426.4 Q704.907,436.4 718.507,436.4 Q732.107,436.4 740.107,426.4 Q748.107,416.4 748.107,398.4 Q748.107,380.4 740.107,370.4 z M754.707,437.8 Q741.107,452.4 718.507,452.4 Q695.907,452.4 682.207,437.8 Q668.507,423.2 668.507,398.4 Q668.507,373.6 682.207,359 Q695.907,344.4 718.507,344.4 Q741.107,344.4 754.807,359 Q768.507,373.6 768.507,398.4 Q768.507,423.2 754.707,437.8 z" fill="#000000"/>
      <path d="M792.307,366.4 Q789.107,366.4 786.707,364 Q784.307,361.6 784.307,358.4 Q784.307,355.2 786.707,352.8 Q789.107,350.4 792.307,350.4 L808.507,350.4 Q810.307,350.4 810.307,348.6 L810.307,339.4 Q810.307,302.4 846.307,302.4 Q851.907,302.4 858.307,303.4 Q861.707,304 863.507,307 Q865.307,310 864.307,313.4 Q863.507,316.4 860.607,318 Q857.707,319.6 854.507,319 Q851.507,318.4 848.307,318.4 Q838.507,318.4 834.607,323.1 Q830.707,327.8 830.707,339.4 L830.707,348.6 Q830.707,350.4 832.507,350.4 L856.307,350.4 Q859.507,350.4 861.907,352.8 Q864.307,355.2 864.307,358.4 Q864.307,361.6 861.907,364 Q859.507,366.4 856.307,366.4 L832.507,366.4 Q830.707,366.4 830.707,368.2 L830.707,440.2 Q830.707,444.4 827.707,447.4 Q824.707,450.4 820.507,450.4 Q816.307,450.4 813.307,447.4 Q810.307,444.4 810.307,440.2 L810.307,368.2 Q810.307,366.4 808.507,366.4 z" fill="#000000"/>
      <path d="M891.307,366.4 Q887.907,366.4 885.607,364 Q883.307,361.6 883.307,358.4 Q883.307,355.2 885.607,352.8 Q887.907,350.4 891.307,350.4 L903.507,350.4 Q905.307,350.4 905.307,348.6 L905.307,322.6 Q905.307,318.4 908.307,315.4 Q911.307,312.4 915.507,312.4 Q919.707,312.4 922.707,315.4 Q925.707,318.4 925.707,322.6 L925.707,348.6 Q925.707,350.4 927.507,350.4 L955.307,350.4 Q958.707,350.4 961.007,352.8 Q963.307,355.2 963.307,358.4 Q963.307,361.6 961.007,364 Q958.707,366.4 955.307,366.4 L927.507,366.4 Q925.707,366.4 925.707,368.2 L925.707,414.4 Q925.707,427.4 929.107,431.9 Q932.507,436.4 941.307,436.4 Q947.707,436.4 951.707,435.4 Q954.707,434.6 957.507,436.1 Q960.307,437.6 960.907,440.6 Q961.507,444 959.607,446.9 Q957.707,449.8 954.507,450.6 Q946.307,452.4 938.307,452.4 Q920.707,452.4 913.007,444.6 Q905.307,436.8 905.307,418.4 L905.307,368.2 Q905.307,366.4 903.507,366.4 z" fill="#000000"/>
      <path d="M1008.307,439.4 L986.307,357.2 Q985.307,353.2 987.807,349.8 Q990.307,346.4 994.507,346.4 Q999.507,346.4 1003.307,349.5 Q1007.107,352.6 1008.107,357.4 L1024.507,432.2 Q1024.507,432.4 1024.707,432.4 Q1024.907,432.4 1024.907,432.2 L1040.507,357.6 Q1041.707,352.8 1045.507,349.6 Q1049.307,346.4 1054.107,346.4 L1059.307,346.4 Q1064.307,346.4 1068.207,349.6 Q1072.107,352.8 1073.107,357.6 L1088.507,432.2 Q1088.507,432.4 1088.707,432.4 Q1088.907,432.4 1088.907,432.2 L1105.307,357 Q1106.507,352.4 1110.207,349.4 Q1113.907,346.4 1118.507,346.4 Q1122.707,346.4 1125.207,349.6 Q1127.707,352.8 1126.507,356.8 L1104.307,439.4 Q1103.107,444.2 1099.007,447.3 Q1094.907,450.4 1089.907,450.4 L1085.707,450.4 Q1080.907,450.4 1077.007,447.3 Q1073.107,444.2 1071.907,439.4 L1056.507,366.6 Q1056.507,366.4 1056.307,366.4 Q1056.107,366.4 1056.107,366.6 L1040.707,439.4 Q1039.707,444.2 1035.807,447.3 Q1031.907,450.4 1026.907,450.4 L1022.707,450.4 Q1017.907,450.4 1013.807,447.3 Q1009.707,444.2 1008.307,439.4 z" fill="#000000"/>
      <path d="M1199.707,398.8 Q1181.707,398.8 1172.007,405 Q1162.307,411.2 1162.307,421.4 Q1162.307,428.8 1166.807,433.1 Q1171.307,437.4 1178.707,437.4 Q1191.307,437.4 1200.507,428.7 Q1209.707,420 1209.707,407.4 L1209.707,400.6 Q1209.707,398.8 1207.907,398.8 z M1173.707,452.4 Q1159.507,452.4 1151.107,444.4 Q1142.707,436.4 1142.707,422.4 Q1142.707,405 1157.407,394.5 Q1172.107,384 1199.707,384 L1207.907,384 Q1209.707,384 1209.707,382.2 Q1209.507,370 1204.407,365.2 Q1199.307,360.4 1186.707,360.4 Q1172.507,360.4 1158.907,366 Q1156.107,367.2 1153.407,365.8 Q1150.707,364.4 1150.107,361.4 Q1149.507,357.8 1151.207,354.6 Q1152.907,351.4 1156.107,350 Q1170.707,344.4 1186.707,344.4 Q1209.307,344.4 1219.507,353.5 Q1229.707,362.6 1229.707,382.4 L1229.707,422.4 Q1229.707,430.2 1231.107,441 Q1231.507,444.6 1229.207,447.5 Q1226.907,450.4 1223.307,450.4 Q1219.107,450.4 1215.907,447.6 Q1212.707,444.8 1212.307,440.8 Q1212.107,439.8 1212.107,437.7 Q1212.107,435.6 1211.907,434.6 Q1211.907,434.4 1211.707,434.4 Q1211.307,434.4 1211.307,434.6 Q1205.707,443 1195.807,447.7 Q1185.907,452.4 1173.707,452.4 z" fill="#000000"/>
      <path d="M1275.307,447.4 Q1272.307,450.4 1268.107,450.4 Q1263.907,450.4 1260.907,447.4 Q1257.907,444.4 1257.907,440.2 L1257.907,356 Q1257.907,352 1260.807,349.2 Q1263.707,346.4 1267.707,346.4 Q1271.707,346.4 1274.507,349.2 Q1277.307,352 1277.507,356 L1277.707,366.2 Q1277.707,366.4 1277.907,366.4 Q1278.107,366.4 1278.307,366.2 Q1293.907,347.6 1317.507,344.8 Q1320.907,344.4 1323.407,346.8 Q1325.907,349.2 1325.907,352.8 Q1325.907,356.2 1323.507,358.7 Q1321.107,361.2 1317.507,361.6 Q1299.107,363.8 1288.707,375.3 Q1278.307,386.8 1278.307,404.4 L1278.307,440.2 Q1278.307,444.4 1275.307,447.4 z" fill="#000000"/>
      <path d="M1388.707,360 Q1376.307,360 1368.707,367.6 Q1361.107,375.2 1360.307,389 Q1360.307,390.8 1361.907,390.8 L1414.507,390.8 Q1416.307,390.8 1416.307,389 Q1415.507,375.2 1408.207,367.6 Q1400.907,360 1388.707,360 z M1390.707,452.4 Q1368.307,452.4 1354.007,437.7 Q1339.707,423 1339.707,398.4 Q1339.707,373.2 1353.007,358.8 Q1366.307,344.4 1388.707,344.4 Q1410.507,344.4 1422.807,357.3 Q1435.107,370.2 1435.707,395 Q1435.907,399.8 1432.307,403.1 Q1428.707,406.4 1423.907,406.4 L1361.907,406.4 Q1360.307,406.4 1360.307,408.2 Q1361.507,421.4 1370.407,429.1 Q1379.307,436.8 1392.707,436.8 Q1404.707,436.8 1415.307,432.6 Q1418.307,431.4 1421.307,432.6 Q1424.307,433.8 1425.307,436.8 Q1426.307,440.2 1424.907,443.3 Q1423.507,446.4 1420.307,447.6 Q1407.707,452.4 1390.707,452.4 z" fill="#000000"/>
    </g>
  </g>
</svg>
