<svg id="レイヤー_1" data-name="レイヤー 1" xmlns="http://www.w3.org/2000/svg" viewBox="0 0 320 120"><defs><style>.cls-1{fill:#fff;}.cls-2,.cls-4{fill:none;stroke:#036eb7;stroke-miterlimit:10;}.cls-3{fill:#036eb7;}.cls-4{stroke-width:3px;}</style></defs><circle class="cls-1" cx="53.92" cy="59.87" r="49.73"/><line class="cls-2" x1="92.86" y1="46.55" x2="62.46" y2="98.57"/><line class="cls-2" x1="56.1" y1="42.17" x2="25.7" y2="94.19"/><line class="cls-2" x1="72.89" y1="47.29" x2="51.17" y2="84.45"/><line class="cls-2" x1="102.94" y1="58.45" x2="81.23" y2="95.6"/><line class="cls-2" x1="20.51" y1="69.59" x2="11.83" y2="84.46"/><line class="cls-2" x1="18.86" y1="41.34" x2="5.83" y2="63.63"/><line class="cls-2" x1="41.1" y1="34.47" x2="28.07" y2="56.77"/><line class="cls-2" x1="33.43" y1="16.36" x2="28.22" y2="25.27"/><line class="cls-2" x1="43.51" y1="97.36" x2="38.3" y2="106.27"/><path class="cls-3" d="M81,23.93a12.64,12.64,0,0,0-2.68-5c-1.53-.79-3.14-1.41-4.68-2.24a27.76,27.76,0,0,0-4.36-2.19,13.22,13.22,0,0,0-4.12.41,12.76,12.76,0,0,0-9.15,15.65,12.94,12.94,0,0,0,15.84,9A12.75,12.75,0,0,0,81,23.93Z"/><path class="cls-3" d="M68.08,14.46a9.86,9.86,0,0,0-1.63,0,.81.81,0,0,1-.93-.8.75.75,0,0,1,0-.16,75.08,75.08,0,0,0-10.59-2.08c-3.09-.24-6.19-.11-9.27-.34a11.65,11.65,0,0,0-.87,8.36A12,12,0,0,0,59.38,27.8,11.81,11.81,0,0,0,68.08,14.46Z"/><path class="cls-3" d="M94.05,32.7a25.32,25.32,0,0,0-2.54-2.76,74.06,74.06,0,0,0-6.82-6.2l-.1-.07-.4-.21-.14-.08a6.92,6.92,0,0,0-.91,0,.87.87,0,0,1-.93-1,6.2,6.2,0,0,0-.72.16,9.85,9.85,0,0,0-7.07,12.08,10,10,0,0,0,12.24,7A9.9,9.9,0,0,0,94.05,32.7Z"/><path class="cls-3" d="M101.67,44.47l0-.09h0a76.76,76.76,0,0,1-4.67-7.45,31.41,31.41,0,0,0-5.43-7l-1-.94a9.85,9.85,0,0,0-6.31,11.85,10,10,0,0,0,17.45,3.62Z"/><ellipse class="cls-3" cx="64.93" cy="17.11" rx="4.3" ry="10.8" transform="translate(22.45 69.11) rotate(-65.52)"/><ellipse class="cls-3" cx="81.18" cy="22.81" rx="2.69" ry="7.4" transform="translate(38.58 95.59) rotate(-75.36)"/><path id="SVGID" class="cls-4" d="M102.22,47.86c7.11,26.2-8.78,53.26-35.41,60.31S12.72,99.64,5.62,73.43,14.39,20.17,41,13.12s54.09,8.53,61.19,34.74"/><path class="cls-3" d="M135.57,38a3.56,3.56,0,0,0,2.73-1c1.54-1.46,1.74-1.67,2.07-1.67.73,0,3.67,2.88,3.67,3.6s-1.34,2.88-1.47,3.34a70.12,70.12,0,0,0-.4,8.54c0,3.47.4,18.8.4,21.86,0,.94,0,2.88-1.2,4.08a5.69,5.69,0,0,1-2.8,1.53c-1.2,0-1.27-1.53-1.27-1.93,0-1.61,0-2.07-1.86-2.07h-3.8a1.67,1.67,0,0,0-1.87,1.86c0,.21,0,2.87-.07,3.27-.2,1.73-2.4,3.94-3.4,3.94-1.8,0-1.8-1.54-1.8-2.14s.27-4.86.27-5.8c.2-7.07.33-11.8.33-30.47,0-1.4-.2-7.6-.2-8.8,0-.34,0-.74.4-.74a11.24,11.24,0,0,1,3,1.47A5.71,5.71,0,0,0,132,38Zm-.13,34.54c.6,0,1.6,0,2-.86.2-.47.2-5.81.2-7.21a64.08,64.08,0,0,0-.2-7.13,1.64,1.64,0,0,0-1.54-.87h-4.53c-1.73,0-1.73.54-1.73,6,0,1.87,0,8.74.26,9.21.2.66.94.86,1.61.86Zm-3.8-32.74a1.63,1.63,0,0,0-1.4.54c-.54.66-.54,10.2-.54,11.73s0,2.67,1.87,2.67h4.07a1.82,1.82,0,0,0,1.8-.87c.26-.67.26-7.6.26-8.93,0-4.8,0-5.14-1.93-5.14ZM169.71,53c3.14,0,3.47,0,4.47-1.66.46-.73,1.66-2.67,2.73-2.67a16.54,16.54,0,0,1,2.67,1.87c3.13,2.6,3.33,2.73,3.33,3.27,0,.93-1.4.93-3.6.93H154.18c-3.14,0-5.88.07-7.14.2-.27,0-1.27.14-1.47.14s-.33-.14-.53-.41l-1.34-1.53c-.26-.33-.26-.33-.26-.47s.06-.13.2-.13c.53,0,2.6.2,3,.2,2.33.13,5.67.26,7.87.26h2.6c2,0,2-1.33,2-2.13,0-1.4,0-5.07-.07-6.27C159,43,157.91,43,157.24,43c-2.13,0-5.53,0-7.47.13-.2,0-1.2.2-1.4.2s-.4-.2-.6-.47l-1.27-1.53c-.26-.27-.33-.33-.33-.4s.14-.2.27-.2c.46,0,2.53.2,2.93.27,2.4.06,5.34.2,7.67.2.73,0,2,0,2-1.67a54.73,54.73,0,0,0-.4-7.4c-.06-.34-.27-1.6-.27-1.87a.49.49,0,0,1,.54-.53c.06,0,7.06,2,7.06,2.86,0,.34-1.46,1.47-1.66,1.74-.47.53-.47,1.93-.47,2.66,0,4,0,4.21,2.87,4.21s3.74.06,4.6-1.2c1.87-2.6,1.87-2.6,2.4-2.6.87,0,5.87,4.26,5.87,4.87s-.34.73-3.27.73H165.84C164,43,164,44,164,45.62c0,5.46,0,6.06.19,6.53.34.86,1.27.86,1.74.86Zm2.54,13.27c-2,0-2.27.61-2.27,2.4,0,2.61.33,13.94.33,16.28,0,5.2-5.47,5.39-6.4,5.39-.67,0-.93-.06-.93-.8,0-1.73,0-2.66-2.81-3.66-.66-.21-3.6-.93-4.13-1.14-.27-.13-1.07-.53-1.07-.8s.41-.46,1-.46c.27,0,6.34.73,7.54.73s1.47-.13,1.73-1.07c.14-.53.2-1.33.2-8.2,0-8.53-.06-8.67-2.26-8.67h-5.47c-1.47,0-6.07,0-8.4.14a11.23,11.23,0,0,1-1.4.2c-.27,0-.4-.2-.61-.47L146,64.62c-.27-.27-.33-.34-.33-.4s.13-.2.26-.2c.47,0,2.54.2,2.94.26,3.06.14,6.06.2,9.13.2h5.2c1.93,0,1.93-1.13,1.93-2.26,0-.86-.33-5.34-.33-5.47,0-.53.14-.8.54-.8s6.66,1.8,6.66,3.13c0,.41-1.66,1.67-1.8,2a4.24,4.24,0,0,0-.33,2c0,1.14.6,1.4,1.27,1.4s1-.26,2.66-2.53c.6-.87,1.34-1.73,2.07-1.73.33,0,.6.2,2.67,1.86,3.13,2.54,3.33,2.74,3.33,3.27,0,.93-1.33.93-3.53.93ZM157.31,80.49c-1.47,0-1.87-.73-3.27-3.14a21.62,21.62,0,0,0-5.93-5.86c-.27-.2-2.4-1.74-2.4-1.8,0-.34.33-.4.53-.4,1.33,0,13.4,2.33,13.4,8.8A2.54,2.54,0,0,1,157.31,80.49Z"/><path class="cls-3" d="M215.2,47.85c1.87,0,1.87-1.14,1.87-2.2,0-.6,0-6.47-.14-6.87-.4-.93-1.26-.93-1.93-.93H202c-5.87,0-7.81.13-8.41.13a12.19,12.19,0,0,1-1.46.2c-.2,0-.34-.2-.54-.47l-1.33-1.53c-.13-.2-.27-.33-.27-.4s.07-.2.27-.2c.4,0,2.47.2,2.93.27,3.27.13,6,.19,9.14.19H236.4c3.2,0,3.53,0,4.87-1.93,1.6-2.33,1.67-2.39,2.2-2.39,1,0,5.6,4.52,5.6,5.19,0,.94-1.26.94-3.53.94H223.93c-2.19,0-2.19.46-2.19,4.8,0,4.66,0,5.2,2.06,5.2h13.8A2.89,2.89,0,0,0,240,47c.54-.67,1.14-1.27,1.4-1.27.87,0,6.07,3.87,6.07,4.67,0,.6-.2.67-1.86,1.73-1.14.74-1.14,1.07-1.14,4.34,0,2.54.14,13.6.14,15.87,0,10.87,0,12.13-.47,13.2-1.07,2.6-5.21,3.54-5.94,3.54-.93,0-1.26-.4-1.66-1.6a6.14,6.14,0,0,0-4-3.94c-.33-.07-1.53-.4-1.53-.66s.27-.21.4-.21c.4,0,6.67,0,6.87-.06,1.13-.21,1.2-1.47,1.27-2.87.13-5,.33-21.87.33-28.2,0-1.67-1-1.94-2.07-1.94h-14c-2.06,0-2.06.2-2.06,6.4,0,4.4,0,23.21.26,26.54.07.53.13,1.73.13,2.2a3.49,3.49,0,0,1-3.67,3.6c-2,0-2-1.13-2-1.73s.26-3.81.26-4.4c.34-7,.4-12.87.4-15.93,0-1.54,0-15.15-.06-15.41-.2-.74-.67-1.27-1.94-1.27H201.66c-1.93,0-2,1.14-2,2.6.07,5.27.07,28.54.07,33.28,0,2.46-2.6,3.33-4.2,3.33-1.4,0-1.4-1.6-1.4-2.07,0-1,.46-7.33.46-8.73V52.32c0-.88-.53-5.34-.53-6,0-.46.07-.66.53-.66a20.35,20.35,0,0,1,4.54,1.53,5.32,5.32,0,0,0,2.53.67Zm-3,13.07a2.51,2.51,0,0,1-2.34,2.73c-1.26,0-1.66-1-2.26-2.4a22.78,22.78,0,0,0-4-5.8,4.34,4.34,0,0,1-.8-1c0-.07.06-.13.13-.2C203.2,54.18,212.2,56.32,212.2,60.92Zm0,14.54a3.2,3.2,0,0,1-2.74,3.19c-1.2,0-1.46-.73-2.4-3.33a33.33,33.33,0,0,0-3.46-6.07,4.76,4.76,0,0,1-.6-.93c0-.07.06-.2.13-.2C204.26,67.85,212.2,70.92,212.2,75.46Zm24.2-.21A2.61,2.61,0,0,1,234.2,78c-.86,0-1.33-.67-2.2-2.13a31.26,31.26,0,0,0-5.93-6.67c-.67-.61-.8-.67-.6-.8C226.4,67.79,236.4,69.58,236.4,75.25Zm-.53-13.86a2.68,2.68,0,0,1-2.2,2.92c-1.14,0-1.54-.86-2.07-2.13-1-2.39-3.53-5-4.53-6.06a17.57,17.57,0,0,1-1.54-1.47.22.22,0,0,1,.2-.2C227.2,53.85,235.87,56.05,235.87,61.39Z"/><path class="cls-3" d="M305.43,43.45a2.09,2.09,0,0,0,2.07-1.14c.46-.73.8-1.06,1.13-1.06s6.53,4.13,6.53,5.87c0,.93-.66,1.33-2,1.39-2.8.07-3.2.07-4.47.47-.73.2-4.46,2.13-4.46,2s2.06-4.07,2.06-4.87-.66-.93-1.26-.93H266.68c-1.13,0-1.66,0-1.8,1.53-.66,7.07-4.66,9.54-6.6,9.54A2.38,2.38,0,0,1,256,53.78c0-1.67.87-2.4,2.07-3.53a13.16,13.16,0,0,0,4-7.07,23.9,23.9,0,0,1,.86-3.54c.27,0,.34.27,1.34,2.48.47,1.06.66,1.33,2.34,1.33H281c2.07,0,2.07-1,2.07-4.07,0-1.46-.07-5.67-.27-6.93-.06-.34-.4-2-.4-2.34s.07-.46.67-.46c.8,0,6.87.92,6.87,2.66a1.35,1.35,0,0,1-.6.94,12.23,12.23,0,0,0-1.07,1c-.33.53-.33,4.33-.33,6.6,0,1.53,0,2.6,2.06,2.6ZM295,74.72a11.56,11.56,0,0,0,3.26-.2c.67-.33,2.81-3.47,3.47-3.47s5.07,3.4,5.07,4.47-1.2,1-3.6,1h-13.4c-2,0-2.14,1-2.14,2.74,0,5.33,0,5.86,2,5.86h12.74c2.86,0,3.4-.06,3.8-.46.6-.67,2.86-4.07,3.66-4.07s5.61,4.33,5.61,5.4-1.14.93-3.47.93H268.09c-5.87,0-7.8.13-8.4.13a10.6,10.6,0,0,1-1.47.21c-.2,0-.34-.21-.54-.47l-1.33-1.53c-.26-.27-.26-.34-.26-.4s.06-.2.2-.2c.46,0,2.53.26,3,.26,3.26.2,6,.2,9.13.2H281c2,0,2-1.07,2-2.66,0-5.6,0-5.94-1.94-5.94h-4.93c-5.87,0-7.8.14-8.47.14a11.23,11.23,0,0,1-1.4.2c-.2,0-.33-.2-.6-.47l-1.27-1.54c-.26-.26-.26-.33-.26-.4a.18.18,0,0,1,.2-.2c.46,0,2.53.27,2.93.27,3.27.2,6,.2,9.14.2H281c1.94,0,1.94-1.2,1.94-2.47,0-7.33-.14-7.87-2.6-7.87H278c-1.87,0-2,1.07-2.06,1.8s-.34,2.74-3,2.74c-1.26,0-2.07-.34-2.07-1.8,0-.74.34-3.87.34-4.47.07-2.2.13-4.4.13-5.47,0-1.39-.06-3.66-.2-5-.06-.33-.46-1.87-.46-2.2a.55.55,0,0,1,.6-.6,10.47,10.47,0,0,1,3.4,1.07,8.19,8.19,0,0,0,3.47.73h15.6a2.71,2.71,0,0,0,2.47-1.13c.66-.87.8-1,1.26-1,.8,0,4.67,3,4.67,3.93,0,.54-.2.73-1.4,1.8-.53.54-.53,1.54-.53,3.47,0,.87.13,4.93.13,5.8a3,3,0,0,1-3.13,3.2c-1.47,0-1.67-.67-1.87-1.66-.27-1.21-1.13-1.21-1.87-1.21h-7.33c-.2,0-.6,0-.6.34s.13.47,1.93,1.19c2,.81,2.13,1.21,2.13,1.54S288.16,69,288,69.32a7.07,7.07,0,0,0-.33,2.93c0,1.6.27,2.47,2.14,2.47ZM275.89,39.05a2.28,2.28,0,0,1-2.2,2.59c-1.07,0-1.27-.39-3.27-4.13a15.67,15.67,0,0,0-4.13-5,5.31,5.31,0,0,1-.8-.67c0-.13.46-.21.53-.21A14.12,14.12,0,0,1,271.09,33C272.62,33.71,275.89,35.51,275.89,39.05ZM278,52.91c-1.74,0-2.14.54-2.14,2.41,0,5.87,0,6,.27,6.53.33.8,1.27.8,1.87.8h15.6c1.93,0,2.27-.07,2.27-6.67,0-2.27-.07-3.07-2.14-3.07Zm27.73-17.2c0,.87-.86.94-1.8.94s-1.06.06-4.93,2.27a20.58,20.58,0,0,1-5.33,2.26c-.07,0-.2,0-.2-.07s2.59-3.47,3-4.2c2.13-3.53,2.39-3.87,2.79-5.13.34-.94.41-1.14.81-1.14.8,0,2.27,1.27,2.93,1.81C304.23,33.58,305.69,34.84,305.69,35.71Z"/></svg>